<svg xmlns="http://www.w3.org/2000/svg" xmlns:xlink="http://www.w3.org/1999/xlink" width="16" height="16" viewBox="0 0 16 16">
  <defs>
    <clipPath id="clip-path">
      <rect id="Rectangle_7661" data-name="Rectangle 7661" width="16" height="16" fill="#007772"/>
    </clipPath>
  </defs>
  <g id="Mask_Group_1387" data-name="Mask Group 1387" clip-path="url(#clip-path)">
    <g id="Group_2913" data-name="Group 2913" transform="translate(0.719 0.833)">
      <g id="Group_2914" data-name="Group 2914">
        <path id="Path_888" data-name="Path 888" d="M4.177,8.87a2.447,2.447,0,1,1-3.46,0,2.447,2.447,0,0,1,3.46,0" transform="translate(0 -3.32)" fill="none" stroke="#007772" stroke-width="1"/>
        <path id="Path_889" data-name="Path 889" d="M12.665,1.488a2.75,2.75,0,1,1-3.888,0A2.75,2.75,0,0,1,12.665,1.488Z" transform="translate(-3.44 -0.683)" fill="#007772"/>
        <path id="Path_890" data-name="Path 890" d="M12.148,16.341a2.446,2.446,0,1,1-3.46,0,2.446,2.446,0,0,1,3.46,0" transform="translate(-3.137 -6.26)" fill="none" stroke="#007772" stroke-width="1"/>
        <path id="Path_891" data-name="Path 891" d="M20.118,8.87a2.447,2.447,0,1,1-3.46,0,2.447,2.447,0,0,1,3.46,0" transform="translate(-6.273 -3.32)" fill="none" stroke="#007772" stroke-width="1"/>
      </g>
    </g>
  </g>
</svg>
