<svg xmlns="http://www.w3.org/2000/svg" xmlns:xlink="http://www.w3.org/1999/xlink" width="24" height="24" viewBox="0 0 24 24">
  <defs>
    <clipPath id="clip-path">
      <rect id="Rectangle_147597" data-name="Rectangle 147597" width="24" height="24" transform="translate(119 440)" fill="#fff" stroke="#707070" stroke-width="1"/>
    </clipPath>
  </defs>
  <g id="Mask_Group_1544" data-name="Mask Group 1544" transform="translate(-119 -440)" clip-path="url(#clip-path)">
    <g id="Group_4834" data-name="Group 4834" transform="translate(0.11 16.5)">
      <path id="Path_4949" data-name="Path 4949" d="M20.976,55.724v3.924H.967s-.013-.031-.008-.031a5.9,5.9,0,0,0,2.229-.549A6.913,6.913,0,0,0,5.784,57a40.909,40.909,0,0,0,2.778-4.233c.5-.842,1.024-1.712,1.573-2.542,1-1.519,2.607-3.235,4.548-2.784a4.745,4.745,0,0,1,2.587,1.976,25.206,25.206,0,0,1,1.99,3.326c.51.955,1.032,1.933,1.625,2.84l.09.136" transform="translate(116.946 381.839)" fill="#007772"/>
      <path id="Path_4950" data-name="Path 4950" d="M1130.565,258.924h-9.373l.176-9.238c.368.552,2.162,4.043,2.574,4.548,1.709,2.1,2.171,3.18,4.372,3.773a15.423,15.423,0,0,0,2.251.917" transform="translate(-986.465 182.564)" fill="#f8f8f8"/>
      <path id="Path_4951" data-name="Path 4951" d="M26.22,12.219V13h-.015l-.181-.006-.088-.005a6.382,6.382,0,0,1-1.241-.2,7.364,7.364,0,0,1-3.83-2.63,24.909,24.909,0,0,1-2.484-4.014,25.122,25.122,0,0,0-1.99-3.316A4.743,4.743,0,0,0,13.8.855C11.862.4,10.259,2.116,9.255,3.631c-.548.828-1.069,1.7-1.573,2.535A40.794,40.794,0,0,1,4.9,10.388a6.909,6.909,0,0,1-2.6,2.057,6.227,6.227,0,0,1-2.294.543H0V12.2H.015a5.764,5.764,0,0,0,4.274-2.3A40.187,40.187,0,0,0,7.013,5.764C7.521,4.918,8.046,4.042,8.6,3.2A8.887,8.887,0,0,1,10.774.838,3.868,3.868,0,0,1,13.98.094a5.521,5.521,0,0,1,3.032,2.259,25.669,25.669,0,0,1,2.057,3.42c1.443,2.7,2.935,5.482,5.829,6.258a5.61,5.61,0,0,0,1.166.181l.141.005h.015" transform="translate(117.89 428.5)" fill="#222"/>
    </g>
  </g>
</svg>
