<svg xmlns="http://www.w3.org/2000/svg" width="16" height="16" viewBox="0 0 16 16">
  <g id="MDI_cogs" data-name="MDI / cogs" transform="translate(0.408)">
    <g id="Boundary" transform="translate(-0.408 0.5)" fill="#006c7c" stroke="rgba(0,0,0,0)" stroke-width="1" opacity="0">
      <rect width="16" height="15" stroke="none"/>
      <rect x="0.5" y="0.5" width="15" height="14" fill="none"/>
    </g>
    <path id="Path_cogs" data-name="Path / cogs" d="M12.626,14.533a1.867,1.867,0,1,0-1.86-1.867,1.866,1.866,0,0,0,1.86,1.867m3.947-1.349,1.123.884a.268.268,0,0,1,.061.343l-1.063,1.844a.265.265,0,0,1-.326.114l-1.321-.533a4.068,4.068,0,0,1-.9.526l-.2,1.41a.262.262,0,0,1-.258.229H11.563a.27.27,0,0,1-.266-.229l-.2-1.41a3.9,3.9,0,0,1-.9-.526l-1.328.533a.258.258,0,0,1-.319-.114L7.494,14.411a.268.268,0,0,1,.061-.343l1.123-.884-.038-.518.038-.526-1.123-.876a.27.27,0,0,1-.061-.343L8.557,9.078a.254.254,0,0,1,.319-.122L10.2,9.5a3.644,3.644,0,0,1,.9-.526l.2-1.417a.27.27,0,0,1,.266-.221h2.125a.262.262,0,0,1,.258.221l.2,1.417a3.79,3.79,0,0,1,.9.526l1.321-.541a.26.26,0,0,1,.326.122l1.063,1.844a.27.27,0,0,1-.061.343l-1.123.876.038.526-.038.518M5.634,6.625a1.2,1.2,0,1,0-1.2-1.2,1.191,1.191,0,0,0,1.2,1.2M8.17,5.764l.736.564a.182.182,0,0,1,.023.221L8.246,7.737a.162.162,0,0,1-.2.076l-.85-.343-.562.335-.144.907a.171.171,0,0,1-.167.145H4.951a.173.173,0,0,1-.175-.145l-.121-.907L4.078,7.47l-.865.343a.158.158,0,0,1-.2-.076L2.332,6.549a.175.175,0,0,1,.038-.221l.721-.564-.023-.335.023-.335L2.37,4.53a.175.175,0,0,1-.038-.221L3.016,3.12a.158.158,0,0,1,.2-.076l.858.343.585-.335.121-.907A.173.173,0,0,1,4.951,2H6.318a.171.171,0,0,1,.167.145l.144.907.562.335.85-.343a.162.162,0,0,1,.2.076l.683,1.189a.182.182,0,0,1-.023.221l-.736.564.023.335Z" transform="translate(-2.267 -2)" fill="#006c7c"/>
  </g>
</svg>
